<?xml version="1.0" encoding="UTF-8" standalone="no"?>
<!DOCTYPE svg PUBLIC "-//W3C//DTD SVG 1.1//EN" "http://www.w3.org/Graphics/SVG/1.1/DTD/svg11.dtd">
<svg width="100%" height="100%" viewBox="0 0 4961 3508" version="1.1" xmlns="http://www.w3.org/2000/svg" xmlns:xlink="http://www.w3.org/1999/xlink" xml:space="preserve" xmlns:serif="http://www.serif.com/" style="fill-rule:evenodd;clip-rule:evenodd;stroke-linejoin:round;stroke-miterlimit:2;">
    <g transform="matrix(1,0,0,1,-0,-219.383292)">
        <g transform="matrix(20.877897,0,0,20.869057,-1549.118994,-1410.941948)">
            <path d="M153.148,108.148C152.418,106.684 152,106.215 151.898,106.75C151.668,106.25 151.367,106.801 151,108.398L151.398,117.051L156.301,158.051L157.898,156.949L159.75,157.648L154.801,116.648L153.148,108.148Z" style="fill:rgb(197,186,186);"/>
        </g>
        <g transform="matrix(20.877897,0,0,20.869057,-1549.118994,-1410.941948)">
            <path d="M163.551,171C162.148,167.602 161.551,165.199 161.75,163.801C161.918,162.398 162.066,161.715 162.199,161.75C163.234,159.918 163.551,158.867 163.148,158.602C162.785,157.301 161.867,156.633 160.398,156.602C158.898,156.566 158.051,156.602 157.852,156.699C157.648,156.633 156.832,156.801 155.398,157.199C153.965,157.602 153.215,158.465 153.148,159.801C152.852,160.133 153.398,161.082 154.801,162.648C154.934,162.551 155.25,163.168 155.75,164.5C156.285,165.801 156.285,168.266 155.75,171.898C155.582,172.168 155.25,173.984 154.75,177.352C154.215,180.75 154.5,184.168 155.602,187.602L160.051,201.5C160.051,201.633 160.352,202.102 160.949,202.898C161.551,203.668 162.418,204.051 163.551,204.051C164.648,203.785 165.398,203.199 165.801,202.301C166.199,201.398 166.383,200.883 166.352,200.75L167.398,186.199C167.633,182.602 167.102,179.215 165.801,176.051C164.5,172.883 163.75,171.199 163.551,171Z" style="fill:rgb(81,138,199);"/>
        </g>
        <g transform="matrix(20.877897,0,0,20.869057,-1549.118994,-1410.941948)">
            <path d="M253.051,97.398L251.551,96.949L250.102,96.551L246.352,104.398L246.801,108.148L233.648,154.551L235.148,154.949L236.648,155.398L249.801,108.949L252.102,106.051L253.051,97.398Z" style="fill:rgb(197,186,186);"/>
        </g>
        <g transform="matrix(20.877897,0,0,20.869057,-1549.118994,-1410.941948)">
            <path d="M228.852,200.199L238.301,166.898C237.266,164.801 236.934,163.148 237.301,161.949C237.633,160.785 237.867,160.184 238,160.148C239.035,160.285 239.766,159.949 240.199,159.148C240.668,158.352 240.898,157.883 240.898,157.75C241.066,156.184 240.301,155.016 238.602,154.25C236.898,153.449 235.918,153.051 235.648,153.051C235.418,152.918 234.367,152.734 232.5,152.5C230.668,152.301 229.418,152.898 228.75,154.301C228.648,154.398 228.582,154.918 228.551,155.852C228.516,156.785 228.965,157.449 229.898,157.852C230,157.949 229.898,158.602 229.602,159.801C229.266,161 228.117,162.215 226.148,163.449L216.699,196.75C216.5,196.816 216.535,197.301 216.801,198.199C217.066,199.133 218.801,200.117 222,201.148C225.266,201.949 227.266,202.035 228,201.398C228.699,200.766 228.984,200.367 228.852,200.199Z" style="fill:rgb(81,138,199);"/>
        </g>
        <g transform="matrix(20.877897,0,0,20.869057,-1549.118994,-1410.941948)">
            <path d="M280.301,119.898L280.301,120.051L280.102,129.148C279.734,131.551 278.035,132.832 275,133C271.965,132.699 270.332,131.332 270.102,128.898L270.301,120.602C267.699,122 265.816,124.168 264.648,127.102C263.516,130.465 263.699,133.648 265.199,136.648L265.148,136.648C265.316,136.648 265.582,137.551 265.949,139.352C266.352,141.184 265.918,144 264.648,147.801L253.648,177.699C252.383,180.867 251.184,182.949 250.051,183.949C248.918,184.949 248.316,185.418 248.25,185.352C245.648,186.484 243.785,188.449 242.648,191.25C241.715,194.016 241.816,196.648 242.949,199.148C244.082,201.648 246.016,203.434 248.75,204.5L248.75,204.398L248.898,196.648C249.199,194.582 250.648,193.484 253.25,193.352C255.816,193.617 257.199,194.785 257.398,196.852L257.25,203.898C259.449,202.734 261.051,200.898 262.051,198.398C263.016,195.535 262.867,192.816 261.602,190.25C261.5,190.285 261.332,189.551 261.102,188.051C260.898,186.551 261.352,184.184 262.449,180.949L273.449,151C275.852,145.898 278,143.168 279.898,142.801C280.199,142.699 280.5,142.582 280.801,142.449L280.852,142.449C283.918,141.117 286.117,138.785 287.449,135.449C288.551,132.215 288.434,129.133 287.102,126.199C285.734,123.266 283.465,121.168 280.301,119.898Z" style="fill:rgb(197,186,186);"/>
        </g>
        <g transform="matrix(20.877897,0,0,20.869057,-1549.118994,-1410.941948)">
            <path d="M270.648,146C269.785,145.734 269.234,145.801 269,146.199L255.051,184.051C254.984,184.516 255.367,184.918 256.199,185.25C257.102,185.551 257.668,185.5 257.898,185.102L271.801,147.25C271.898,146.785 271.516,146.367 270.648,146Z" style="fill:rgb(125,120,117);"/>
        </g>
        <g transform="matrix(20.877897,0,0,20.869057,-1544.55145,-1383.259065)">
            <path d="M134.102,93.5C133.301,91.133 132.352,89.648 131.25,89.051C130.184,88.418 129.582,88.148 129.449,88.25L116.051,92.949L113.699,91.699C105,94.566 99.25,98.566 96.449,103.699C93.617,108.832 92.285,113.551 92.449,117.852C92.617,122.117 92.816,124.383 93.051,124.648L94.449,124.25C94.516,119.785 95.383,116.285 97.051,113.75C98.75,111.25 99.715,109.965 99.949,109.898C101.715,108.668 103.051,108.215 103.949,108.551C104.883,108.883 105.352,109.117 105.352,109.25L107.352,116.199L120.352,112.398L117.898,103.949L133,100.398C133.133,100.398 133.5,99.852 134.102,98.75C134.699,97.648 134.699,95.898 134.102,93.5Z" style="fill:rgb(197,186,186);"/>
        </g>
        <g transform="matrix(20.877897,0,0,20.869057,-1549.118994,-1410.941948)">
            <path d="M113.051,113.648L109.352,114.75L119.75,150.398L123.398,149.301L127.102,148.25L116.699,112.602L113.051,113.648Z" style="fill:rgb(197,186,186);"/>
        </g>
        <g transform="matrix(20.877897,0,0,20.869057,-1549.118994,-1410.941948)">
            <path d="M143.5,198.551L128.699,147.853C128.832,147.383 128.285,147.118 127.051,147.051L123.102,148.2L119.148,149.353C118.148,150.051 117.832,150.566 118.199,150.898L133,201.602C132.867,204.832 132.949,206.535 133.25,206.699C133.918,208.035 135.234,208.582 137.199,208.352C139.168,208.148 140.266,207.984 140.5,207.852C140.766,207.816 141.785,207.367 143.551,206.5C145.352,205.633 146.168,204.465 146,203C146.168,202.668 145.332,201.184 143.5,198.551Z" style="fill:rgb(84,135,197);"/>
        </g>
        <g transform="matrix(20.877897,0,0,20.869057,-1549.118994,-1410.941948)">
            <path d="M100.398,170.898L118.898,212.602C119.867,213.634 120.5,213.965 120.801,213.602C121.266,213.634 121.434,212.949 121.301,211.551L102.801,169.852L104.102,165.102L100.051,166.898L96.051,168.648L100.398,170.898Z" style="fill:rgb(125,120,117);"/>
        </g>
        <g transform="matrix(20.877897,0,0,20.869057,-1549.118994,-1410.941948)">
            <path d="M92.148,181.602L107.102,215.199C107.832,216.066 108.332,216.332 108.602,216C108.965,216.035 109.102,215.484 109,214.352L94.102,180.75L95.148,176.949L91.898,178.398L88.648,179.852L92.148,181.602Z" style="fill:rgb(125,120,117);"/>
        </g>
        <g transform="matrix(20.877897,0,0,20.869057,-1549.118994,-1410.941948)">
            <path d="M286.199,170.898L267.699,212.602C266.734,213.634 266.102,213.965 265.801,213.602C265.332,213.634 265.168,212.949 265.301,211.551L283.801,169.852L282.5,165.102L286.551,166.898L290.551,168.648L286.199,170.898Z" style="fill:rgb(125,120,117);"/>
        </g>
        <g transform="matrix(20.877897,0,0,20.869057,-1549.118994,-1410.941948)">
            <path d="M294.449,181.602L279.551,215.199C278.785,216.066 278.266,216.332 278,216C277.633,216.035 277.5,215.484 277.602,214.352L292.5,180.75L291.449,176.949L294.699,178.398L297.949,179.852L294.449,181.602Z" style="fill:rgb(125,120,117);"/>
        </g>
        <g transform="matrix(20.877897,0,0,20.869057,-1549.118994,-1410.941948)">
            <path d="M194.852,92.051C194.785,90.516 194.465,89.551 193.898,89.148C193.332,88.75 193.016,88.582 192.949,88.648C192.883,88.582 192.566,88.75 192,89.148C191.434,89.551 191.117,90.516 191.051,92.051L187.602,127.602L187.602,151.602L190.949,146.95L191.852,145.25C192.215,145.352 192.582,145.398 192.949,145.398C193.352,145.398 193.715,145.352 194.051,145.25L195,146.95L198.301,151.602L198.301,127.602L194.852,92.051Z" style="fill:rgb(197,186,186);"/>
        </g>
        <g transform="matrix(20.877897,0,0,20.869057,-1549.118994,-1410.941948)">
            <path d="M198.051,145.25L194.102,146.5C193.832,146.367 193.734,146.785 193.801,147.75C193.934,148.285 194.898,151.352 196.699,156.949C198.465,162.551 200.199,167.535 201.898,171.898C202.102,172.035 202.699,173.617 203.699,176.648C204.734,179.684 205.102,183.316 204.801,187.551C204.832,187.648 204.617,188.785 204.148,190.949C203.684,193.117 202.801,195.551 201.5,198.25C201.398,198.352 201.199,198.898 200.898,199.898C200.602,200.898 200.852,201.832 201.648,202.699C201.684,202.832 202.066,202.898 202.801,202.898C203.566,202.934 204.484,202.035 205.551,200.199C205.918,200.066 206.852,197.816 208.352,193.449C209.883,189.082 209.918,183.398 208.449,176.398L201.301,155.051C201.602,155.051 202.617,154.582 204.352,153.648C206.117,152.684 206.867,151.148 206.602,149.051C206.699,148.883 206.316,148.45 205.449,147.75C204.617,147.051 202.699,147.103 199.699,147.898L199.148,146.051C199.285,145.617 198.918,145.352 198.051,145.25Z" style="fill:rgb(84,135,197);"/>
        </g>
        <g transform="matrix(20.877897,0,0,20.869057,-1549.118994,-1410.941948)">
            <path d="M187.898,145.25L191.852,146.5C192.117,146.367 192.215,146.785 192.148,147.75C191.984,148.285 191.016,151.352 189.25,156.949C187.484,162.551 185.75,167.535 184.051,171.898C183.852,172.035 183.25,173.617 182.25,176.648C181.215,179.684 180.852,183.316 181.148,187.551C181.117,187.648 181.332,188.785 181.801,190.949C182.266,193.117 183.148,195.551 184.449,198.25C184.551,198.352 184.75,198.898 185.051,199.898C185.316,200.898 185.066,201.832 184.301,202.699C184.266,202.832 183.883,202.898 183.148,202.898C182.383,202.934 181.449,202.035 180.352,200.199C180.016,200.066 179.102,197.816 177.602,193.449C176.066,189.082 176.035,183.398 177.5,176.398L184.602,155.051C184.332,155.051 183.316,154.582 181.551,153.648C179.816,152.684 179.082,151.148 179.352,149.051C179.25,148.883 179.617,148.45 180.449,147.75C181.316,147.051 183.25,147.103 186.25,147.898L186.801,146.051C186.668,145.617 187.035,145.352 187.898,145.25Z" style="fill:rgb(84,135,197);"/>
        </g>
        <g transform="matrix(20.877897,0,0,20.869057,-1549.118994,-1410.941948)">
            <path d="M189.852,132.102C190.016,134.035 191.066,135.082 193,135.25C194.934,135.082 195.984,134.035 196.148,132.102C195.984,130.168 194.934,129.117 193,128.949C191.066,129.117 190.016,130.168 189.852,132.102Z" style="fill:rgb(125,120,117);"/>
        </g>
        <g transform="matrix(20.877897,0,0,20.869057,-1549.118994,-1410.941948)">
            <path d="M193,88.648L191.801,129.551L193,129.949L194.199,129.551L193,88.648Z" style="fill:rgb(125,120,117);"/>
        </g>
        <g transform="matrix(20.877897,0,0,20.869057,-1549.118994,-1410.941948)">
            <path d="M193,206.5C219.766,206.633 243.602,209.352 264.5,214.648C285.398,219.949 301.168,226.965 311.801,235.699C306.035,224.301 292.352,214.965 270.75,207.699C249.117,200.434 223.199,196.684 193,196.449C162.766,196.684 136.852,200.434 115.25,207.699C93.648,214.965 79.965,224.301 74.199,235.699C84.832,226.965 100.602,219.949 121.5,214.648C142.398,209.352 166.234,206.633 193,206.5Z" style="fill:rgb(84,135,197);"/>
        </g>
    </g>
</svg>
